<?xml version="1.0" encoding="UTF-8"?>
<svg version="1.1" xmlns="http://www.w3.org/2000/svg" width="512" height="512">
<path d="M0 0 C1.36478557 -0.00258636 2.72957038 -0.00560028 4.09435415 -0.0090034 C7.83490584 -0.01704498 11.5754383 -0.01886138 15.3159976 -0.01960087 C19.35437754 -0.02145642 23.39274762 -0.02900634 27.43112183 -0.03573608 C36.25787788 -0.04930038 45.08462938 -0.05534134 53.91139412 -0.05974674 C59.42747722 -0.06251275 64.94355858 -0.06675079 70.4596405 -0.07125092 C85.74481343 -0.08344179 101.02998497 -0.09374101 116.31516266 -0.09712601 C117.29289032 -0.09734557 118.27061797 -0.09756514 119.27797374 -0.09779136 C120.25798788 -0.09800964 121.23800203 -0.09822791 122.24771357 -0.09845281 C124.23346106 -0.09889627 126.21920856 -0.09934283 128.20495605 -0.09979248 C129.18994699 -0.10001391 130.17493793 -0.10023534 131.18977708 -0.10046348 C147.13860701 -0.10440877 163.08739118 -0.12185541 179.03620344 -0.145152 C195.42732917 -0.16890053 211.81843197 -0.18132947 228.20957518 -0.18249393 C237.40577914 -0.18340879 246.60192348 -0.1891134 255.79811096 -0.20731354 C263.6312938 -0.22276194 271.46439859 -0.22780719 279.29759377 -0.21957543 C283.28933477 -0.21568546 287.28091884 -0.21651697 291.27264023 -0.23063278 C294.93707427 -0.24347188 298.60123508 -0.24208774 302.26566929 -0.23004207 C304.19782139 -0.22719323 306.12997866 -0.23894459 308.0620923 -0.25146413 C335.07887694 -0.10084572 360.55022992 11.21603022 379.65515137 30.14044189 C404.30263812 55.35713667 409.29114254 85.41338907 409.17805004 119.30232084 C409.16890363 123.36578872 409.18301615 127.42919096 409.19396973 131.49264526 C409.21165793 139.42885481 409.2079587 147.36491213 409.19631916 155.30112738 C409.18724727 161.75651408 409.18607699 168.21185842 409.19041443 174.66724968 C409.19102736 175.58964859 409.19164029 176.51204749 409.1922718 177.46239788 C409.19355083 179.33682785 409.19484769 181.21125781 409.19616216 183.08568775 C409.20753938 200.61833248 409.19449896 218.15089323 409.1729607 235.68352418 C409.15508935 250.69549122 409.1581997 265.7073345 409.17663574 280.71929932 C409.19808799 298.19520807 409.20644413 315.67104345 409.19418669 333.14696354 C409.19291262 335.0137923 409.19165514 336.88062108 409.19041443 338.74744987 C409.18979733 339.66572493 409.18918022 340.58399998 409.18854442 341.53010156 C409.18510478 347.97094293 409.19088974 354.41173738 409.20033264 360.85257149 C409.21160242 368.71145224 409.20840856 376.57017339 409.18720967 384.42903609 C409.17676622 388.43125808 409.1724614 392.43321488 409.18580627 396.43543434 C409.29295965 431.53561518 402.23723306 458.52605758 377.40515137 484.76544189 C361.8479156 499.83903303 337.81416718 512.23592691 315.80593395 512.27466297 C314.62845819 512.27912082 313.45098242 512.28357866 312.23782557 512.28817159 C310.94816317 512.28798723 309.65850077 512.28780286 308.32975769 512.28761292 C306.94266193 512.29091378 305.55556713 512.29463982 304.16847354 512.29875439 C300.3569267 512.30875771 296.5453956 512.31248852 292.73383749 512.3151437 C288.62246304 512.31905186 284.51110101 512.32863001 280.3997345 512.33735657 C270.46913829 512.35710923 260.53854109 512.36718685 250.60793015 512.37608436 C245.92737383 512.38047027 241.24681863 512.38583639 236.5662632 512.39107323 C220.99894667 512.40808628 205.43163084 512.42257847 189.86430645 512.42982197 C185.82543118 512.43173176 181.78655591 512.43365211 177.74768066 512.43560791 C176.74387735 512.43609165 175.74007403 512.43657539 174.70585243 512.43707379 C158.4600965 512.44536665 142.21441438 512.47069063 125.96869066 512.50318859 C109.27591045 512.53630748 92.58316768 512.55427519 75.89035445 512.55746621 C66.52359905 512.55962712 57.15695119 512.56831391 47.79022789 512.59392738 C39.80952214 512.61570067 31.82895007 512.62365245 23.84821799 512.6139606 C19.78138641 512.60943467 15.71483025 512.61120161 11.64803696 512.63072205 C-19.60916291 512.77231759 -19.60916291 512.77231759 -32.34484863 508.14044189 C-32.99528062 507.91186166 -33.64571262 507.68328143 -34.31585467 507.44777453 C-61.2625362 497.96272039 -81.9539561 478.79197162 -94.5916748 453.38653564 C-99.71685057 442.52371715 -103.45762532 430.27761683 -103.47906971 418.22061539 C-103.48352755 417.05283216 -103.4879854 415.88504893 -103.49257833 414.68187833 C-103.49239397 413.40816585 -103.4922096 412.13445338 -103.49201965 410.82214355 C-103.49532161 409.44798452 -103.49904787 408.07382645 -103.50316113 406.6996696 C-103.51315207 402.92844803 -103.51689325 399.15724238 -103.51955044 395.38600945 C-103.52346229 391.31619612 -103.53304017 387.24639529 -103.54176331 383.17658997 C-103.56150556 373.34873764 -103.57159226 363.52088432 -103.5804911 353.69301713 C-103.58487871 349.05904392 -103.59024439 344.42507186 -103.59547997 339.79109955 C-103.61249197 324.37558352 -103.6269837 308.96006819 -103.63422871 293.54454422 C-103.63613845 289.5460739 -103.6380588 285.54760359 -103.64001465 281.5491333 C-103.64049839 280.55539195 -103.64098213 279.5616506 -103.64148053 278.53779587 C-103.64977169 262.45835069 -103.67509326 246.37898013 -103.70759533 230.29956749 C-103.7407299 213.77172777 -103.75868334 197.24392587 -103.76187295 180.71605277 C-103.76403241 171.44426328 -103.77269783 162.17258251 -103.79833412 152.9008255 C-103.82012891 145.00034999 -103.82804874 137.10000961 -103.81836734 129.19950745 C-103.81384756 125.17495056 -103.81557174 121.15067197 -103.83512878 117.12615395 C-103.93726275 94.83499942 -102.57154719 75.36780416 -92.34484863 55.14044189 C-91.8098877 54.08212158 -91.27492676 53.02380127 -90.72375488 51.93341064 C-76.97776032 26.78186663 -53.38376685 10.68568649 -26.34362793 2.70001221 C-17.51216205 0.20943593 -9.14712862 -0.00628449 0 0 Z " fill="#3C5AC3" transform="translate(103.3448486328125,-0.14044189453125)"/>
<path d="M0 0 C2.25199981 1.66696072 4.31495606 3.42199621 6.3828125 5.3125 C7.72085938 6.51326172 7.72085938 6.51326172 9.0859375 7.73828125 C19.19080142 17.27716236 28.38170704 30.1003368 31.1015625 43.98046875 C32.04945793 47.55032775 32.04945793 47.55032775 35.296875 48.80859375 C36.52148438 49.11925781 37.74609375 49.42992187 39.0078125 49.75 C56.80109061 54.81307512 71.01209692 64.68097845 84.3828125 77.3125 C85.14464844 78.00988281 85.90648437 78.70726562 86.69140625 79.42578125 C95.1410951 87.43614486 102.53986395 97.67748234 107.3828125 108.3125 C107.3828125 108.9725 107.3828125 109.6325 107.3828125 110.3125 C108.81560547 110.26029297 108.81560547 110.26029297 110.27734375 110.20703125 C118.54427073 110.03394504 125.52337771 110.47585189 133.3828125 113.3125 C134.59066406 113.73789063 135.79851562 114.16328125 137.04296875 114.6015625 C144.93196035 117.49747114 151.83022279 120.98027516 158.3828125 126.3125 C159.21296875 126.96863281 160.043125 127.62476563 160.8984375 128.30078125 C174.1424866 139.41196968 180.96972467 153.85287513 185.3828125 170.3125 C185.64082642 171.24594238 185.64082642 171.24594238 185.90405273 172.19824219 C190.06481522 190.57264461 183.71530535 209.68068648 174.3828125 225.3125 C172.25639744 228.54150064 169.97557635 231.44833325 167.3828125 234.3125 C166.81433594 234.9725 166.24585938 235.6325 165.66015625 236.3125 C152.43697455 250.68674422 133.93983191 257.74177835 114.75512695 258.60913086 C112.48148599 258.6918314 110.20761069 258.76822262 107.93359375 258.83984375 C106.63988358 258.88116928 105.3461734 258.92249481 104.01325989 258.96507263 C83.2058732 259.59172759 62.38522982 259.70173735 41.5703125 259.875 C40.39893234 259.88489834 39.22755219 259.89479668 38.02067566 259.90499496 C18.5877126 260.0679222 -0.84539384 260.19366953 -20.27873707 260.29972458 C-21.85768316 260.30835068 -23.43662895 260.31703172 -25.01557446 260.3257637 C-46.61183933 260.44519564 -68.20802609 260.54103467 -89.80458164 260.58731747 C-91.53967352 260.59106303 -93.27476537 260.59482462 -95.00985718 260.59860229 C-95.86607751 260.60046234 -96.72229783 260.60232239 -97.60446423 260.60423881 C-103.63289446 260.6183487 -109.66122965 260.64280603 -115.68960571 260.67166138 C-123.09511338 260.70692429 -130.5004947 260.72769673 -137.90608853 260.73042715 C-141.72024818 260.73219635 -145.53410735 260.7403157 -149.3481884 260.76583099 C-153.52884767 260.7935121 -157.70890311 260.78935408 -161.88964844 260.7824707 C-163.09629056 260.79528359 -164.30293268 260.80809649 -165.54613972 260.82129765 C-179.31237173 260.73753637 -191.73297065 256.68457968 -201.90234375 247.17578125 C-212.49502911 235.83071824 -217.28408615 222.35017572 -217.08740234 206.91210938 C-216.59642208 194.57196371 -211.72703893 183.62283093 -203.1171875 174.73046875 C-196.76805796 168.88208901 -196.76805796 168.88208901 -192.92578125 166.98046875 C-189.65520614 164.6174644 -189.58104485 162.53169663 -188.8046875 158.625 C-185.83259589 145.64994266 -179.63113415 134.11099386 -170.6171875 124.3125 C-169.87984375 123.48363281 -169.1425 122.65476563 -168.3828125 121.80078125 C-157.33729248 110.01528358 -141.87268611 100.4029384 -125.6171875 98.3125 C-123.95072367 98.28649844 -122.28354927 98.28062177 -120.6171875 98.3125 C-120.88273437 97.63445312 -121.14828125 96.95640625 -121.421875 96.2578125 C-121.77507812 95.32710938 -122.12828125 94.39640625 -122.4921875 93.4375 C-122.84023437 92.53257812 -123.18828125 91.62765625 -123.546875 90.6953125 C-130.20997569 69.63602346 -127.52009956 46.72143701 -117.63818359 27.18164062 C-107.07228107 7.83861104 -89.20701441 -4.99964355 -68.6171875 -11.6875 C-45.11008218 -18.51789851 -20.16150828 -12.99965907 0 0 Z " fill="#F6F6F6" transform="translate(262.6171875,129.6875)"/>
<path d="M0 0 C0.41708851 0.3736415 0.83417702 0.747283 1.26390457 1.13224697 C4.29499236 3.79579352 7.32076837 6.2928078 10.69647217 8.50880432 C22.89873666 16.55903782 35.81718595 26.94272224 40.00900269 41.50533295 C43.78910626 60.85194146 42.38123054 81.22990696 41.53102541 100.80637896 C41.19387794 108.75384014 41.06950785 116.70086877 40.95126009 124.65406215 C40.27553669 167.51822388 38.92624659 203.68190945 7.75 236.625 C-28.01805262 271.28109244 -85.93672172 269.33179425 -132.3125 271.5625 C-133.34520224 271.61379735 -134.37790448 271.66509471 -135.44190073 271.71794653 C-187.94945401 274.2582651 -231.59962638 271.66974731 -272.04335475 235.34386897 C-282.81639081 225.51265112 -292.74623545 214.94978743 -302.4375 204.0625 C-303.39662505 202.98873918 -303.39662505 202.98873918 -304.37512636 201.89328623 C-351 149.59403695 -351 149.59403695 -351 143 C-345.58070783 142.09664787 -340.34487257 141.8382106 -334.85618591 141.81054688 C-333.95665618 141.80223091 -333.05712646 141.79391495 -332.13033825 141.78534698 C-329.12654356 141.75869712 -326.12274232 141.73874014 -323.11889648 141.71875 C-320.95966756 141.70093496 -318.80044211 141.68269493 -316.64122009 141.6640625 C-311.9918174 141.62481672 -307.34240428 141.58850458 -302.69296074 141.55444336 C-295.31203273 141.50027593 -287.93117265 141.43911246 -280.55030823 141.37695312 C-266.17736748 141.25684606 -251.80437695 141.14357444 -237.4313736 141.03125 C-219.22132964 140.8887658 -201.01130781 140.74395114 -182.80134445 140.59148407 C-176.68152281 140.54044555 -170.56169728 140.49103431 -164.44183159 140.44555664 C-133.44600234 140.24353843 -133.44600234 140.24353843 -102.45727539 139.59375 C-101.31589583 139.56478638 -100.17451628 139.53582275 -98.99854946 139.50598145 C-77.1799789 138.75442568 -58.16000455 131.39873424 -42.98828125 115.3671875 C-30.8797406 100.95112535 -24.81524775 83.87882122 -24.6875 65.1875 C-24.68186035 64.41132324 -24.6762207 63.63514648 -24.67041016 62.83544922 C-24.7306846 58.03903372 -25.3709104 53.68078984 -26.57348633 49.03637695 C-27 47 -27 47 -27 43 C-24.83984375 41.359375 -24.83984375 41.359375 -21.9375 39.75 C-12.68824248 34.1530134 -5.17838381 25.56597984 -2.45214844 14.84570312 C-1.41544147 9.92804343 -0.66555713 4.98000206 0 0 Z " fill="#3A4BA7" transform="translate(473,248)"/>
<path d="M0 0 C9.19457027 7.02363007 17.09832712 15.67944709 22.21875 26.12109375 C22.21875 26.78109375 22.21875 27.44109375 22.21875 28.12109375 C22.86199219 28.0746875 23.50523437 28.02828125 24.16796875 27.98046875 C36.4230362 27.49096534 46.93969671 31.08136607 56.21875 39.12109375 C65.10383274 47.53689395 70.86366136 57.85324497 71.5546875 70.234375 C71.74124783 78.9017842 71.26734478 86.26489197 67.21875 94.12109375 C66.744375 95.0440625 66.27 95.96703125 65.78125 96.91796875 C59.1542408 108.4515136 49.16493867 115.6499017 36.49371338 119.15005493 C29.84070549 120.60064328 23.13508415 120.41709795 16.35839844 120.41162109 C14.87079026 120.41761525 13.38318518 120.42442282 11.89558411 120.43197632 C7.87676047 120.44955398 3.85802215 120.45432822 -0.16083622 120.45560789 C-2.67816351 120.45703481 -5.19546948 120.46131463 -7.71279144 120.46660233 C-16.51345686 120.48507589 -25.31406192 120.49327636 -34.11474609 120.49169922 C-42.28827339 120.49049879 -50.46153623 120.51158866 -58.63499665 120.54318655 C-65.67737374 120.5694311 -72.71966489 120.58006309 -79.76209044 120.5787884 C-83.95711192 120.57828113 -88.15189814 120.58383282 -92.34687042 120.6051445 C-96.29674993 120.62466536 -100.24617308 120.62455811 -104.19606972 120.61011124 C-105.63547504 120.60803901 -107.07490999 120.61262796 -108.51426506 120.62483215 C-123.54187967 120.74387222 -136.85182715 117.47048572 -148.06640625 106.984375 C-158.65909161 95.63931199 -163.44814865 82.15876947 -163.25146484 66.72070312 C-162.71086026 53.13331519 -156.78988185 41.57385634 -146.96875 32.24609375 C-142.25886544 28.25587385 -137.50049465 25.41601972 -131.78125 23.12109375 C-131.03746094 22.81429687 -130.29367188 22.5075 -129.52734375 22.19140625 C-125.51701928 20.76641786 -121.90204786 20.05782185 -117.65234375 20.0703125 C-109.47284877 20.36988352 -109.47284877 20.36988352 -102.26171875 17.15625 C-100.30285299 14.63249948 -100.30285299 14.63249948 -98.57421875 11.87890625 C-90.05530771 -1.22425539 -73.2178472 -9.06875732 -58.44311523 -12.40722656 C-37.86844884 -16.05303556 -17.23092518 -11.64055479 0 0 Z " fill="#DDDEDF" transform="translate(208.78125,269.87890625)"/>
<path d="M0 0 C2.25199981 1.66696072 4.31495606 3.42199621 6.3828125 5.3125 C7.72085938 6.51326172 7.72085938 6.51326172 9.0859375 7.73828125 C20.23051534 18.25864093 29.3382066 31.92219378 31.3828125 47.3125 C30.14640015 47.10355103 30.14640015 47.10355103 28.88500977 46.89038086 C19.67956168 45.44169041 10.63293046 44.87080921 1.3203125 44.875 C0.60247589 44.87426483 -0.11536072 44.87352966 -0.85494995 44.87277222 C-32.61086385 44.95773404 -61.04154171 57.68194356 -83.40234375 80.10546875 C-88.32555668 85.23512739 -88.32555668 85.23512739 -91.98046875 91.26171875 C-93.58642217 94.6583813 -94.43084782 96.24593112 -97.6171875 98.3125 C-105.23252511 99.29144785 -113.03908795 98.26149672 -120.6171875 97.3125 C-129.11407618 77.62571968 -129.25164888 55.25930571 -121.36035156 35.26171875 C-113.08036485 15.47916331 -97.42449696 -0.01547978 -77.72924805 -8.34667969 C-51.64956311 -18.89368408 -23.39463955 -15.0843049 0 0 Z " fill="#FCD54D" transform="translate(262.6171875,129.6875)"/>
<path d="M0 0 C5.0663147 4.04403161 9.43100267 7.82404296 12.625 13.5 C13.91751693 15.58512595 13.91751693 15.58512595 16 17 C19.3138266 17.54737314 22.41267935 17.73030326 25.75878906 17.78466797 C37.88773002 17.9874652 47.4751383 22.83062286 56.22265625 31.1015625 C66.07068442 41.52022408 69.47422484 52.76212178 69.1796875 66.8671875 C68.44619656 79.65544262 62.31829549 90.30517094 53 99 C45.25206612 105 45.25206612 105 42 105 C41.67 105.66 41.34 106.32 41 107 C40.72027344 106.18917969 40.44054687 105.37835938 40.15234375 104.54296875 C32.87020371 84.42927649 20.38330332 70.64850316 1.16796875 61.3515625 C-4.08585422 59.11010412 -9.49234864 57.49165558 -15 56 C-15.95326172 55.68675781 -15.95326172 55.68675781 -16.92578125 55.3671875 C-19.20202416 54.87657435 -19.20202416 54.87657435 -22.35546875 55.24609375 C-26.86262459 55.47122182 -29.68276005 55.3852826 -34 54 C-37.80946627 50.17753658 -39.75038131 44.85359851 -41.98486328 40.02246094 C-44.47242298 35.06648581 -48.27616915 31.0531085 -52 27 C-52.44182617 26.5157959 -52.88365234 26.0315918 -53.33886719 25.53271484 C-60.78600286 17.46109772 -68.93784768 11.15432252 -78 5 C-79.3406101 4.00977663 -80.67763579 3.01446078 -82 2 C-57.28395331 -16.97448717 -25.56041678 -18.04745082 0 0 Z " fill="#98A3D8" transform="translate(404,186)"/>
<path d="M0 0 C2.89352768 1.48002278 4.82935959 3.47621284 7.1015625 5.79296875 C7.95878906 6.6540625 8.81601563 7.51515625 9.69921875 8.40234375 C14.17389168 13.45222506 15.61515721 16.86859298 15.38671875 23.54296875 C14.66265945 28.7496873 12.28483123 31.85796922 8.4765625 35.48046875 C3.58432134 37.70421473 -0.67565704 37.92512732 -5.9609375 37.04296875 C-10.04943471 35.30554227 -12.36377895 32.89054863 -14.8984375 29.29296875 C-16.50444684 24.38046959 -17.09947639 19.91406683 -15.15234375 15.00390625 C-12.34413218 10.12597474 -5.98991161 0.13125304 0 0 Z " fill="#FAFBFC" transform="translate(208.9609375,402.95703125)"/>
<path d="M0 0 C3.95444763 1.60239465 6.66847758 4.33621473 9.625 7.3125 C10.11484375 7.78623047 10.6046875 8.25996094 11.109375 8.74804688 C15.05775541 12.69103332 16.71289764 15.82622495 17.4375 21.3125 C16.76406317 26.9886104 14.0733656 31.10957842 9.875 34.9375 C5.42612701 37.45852803 0.9778775 37.60518716 -4 37 C-8.82626694 34.63239735 -11.73430831 31.87995132 -14 27 C-14.88293612 21.98492282 -15.27820431 17.22181984 -12.671875 12.69140625 C-10.89042241 10.63310629 -9.02122551 8.82222454 -7 7 C-5.68341177 5.67070339 -4.37069239 4.33755998 -3.0625 3 C-2.04422713 1.99739287 -1.02438455 0.99636187 0 0 Z " fill="#FCFCFD" transform="translate(311,403)"/>
<path d="M0 0 C15.24164524 12.75321337 15.24164524 12.75321337 16.37109375 19.078125 C16.55626599 25.13434643 15.13962235 29.48218993 11 34 C6.35629701 37.40223924 2.57819891 37.61990244 -3.046875 37.48828125 C-7.58143281 36.73851971 -10.24344902 34.59837193 -13 31 C-15.87811268 26.28500311 -15.96006026 21.35103352 -15 16 C-13.14048635 12.79530627 -10.71074685 10.49794056 -8 8 C-6.5181318 6.50266882 -5.03890296 5.00272031 -3.5625 3.5 C-2.37752704 2.33076672 -1.19096751 1.16312671 0 0 Z " fill="#FCFCFD" transform="translate(260,444)"/>
<path d="M0 0 C0.97610229 -0.00430527 0.97610229 -0.00430527 1.97192383 -0.00869751 C3.34359613 -0.01073306 4.71529779 -0.00523873 6.08691406 0.00732422 C8.18100165 0.02338765 10.27315961 0.00746093 12.3671875 -0.01171875 C13.70312924 -0.00973622 15.03906978 -0.00589235 16.375 0 C18.19064453 0.00507568 18.19064453 0.00507568 20.04296875 0.01025391 C23.38732945 0.42310589 24.76209183 1.12574578 27.1875 3.3984375 C26.93188677 5.7415588 26.59479228 8.07687153 26.1875 10.3984375 C23.19660916 11.89388292 20.12382814 11.56123048 16.84375 11.56640625 C16.11885376 11.56973465 15.39395752 11.57306305 14.64709473 11.57649231 C13.11385737 11.58155675 11.58060899 11.58390078 10.04736328 11.58374023 C7.69675657 11.58592888 5.34661751 11.60409501 2.99609375 11.62304688 C1.50781411 11.62598042 0.01953223 11.62796548 -1.46875 11.62890625 C-2.52660706 11.63968452 -2.52660706 11.63968452 -3.60583496 11.65068054 C-8.58367152 11.62726598 -8.58367152 11.62726598 -10.8125 9.3984375 C-11.1875 6.4609375 -11.1875 6.4609375 -10.8125 3.3984375 C-7.53386702 -0.02148131 -4.58801902 0.01282593 0 0 Z " fill="#EECB27" transform="translate(86.8125,189.6015625)"/>
<path d="M0 0 C2.28588867 0.35791016 2.28588867 0.35791016 4.16088867 1.48291016 C5.28588867 3.35791016 5.28588867 3.35791016 5.13623047 6.15136719 C3.67842249 11.64859659 -0.46275698 14.88312093 -4.43212891 18.78271484 C-5.89960046 20.23092568 -7.33532135 21.70613887 -8.77075195 23.18603516 C-9.69436523 24.10642578 -10.61797852 25.02681641 -11.56958008 25.97509766 C-12.41157959 26.81669434 -13.2535791 27.65829102 -14.12109375 28.52539062 C-17.26894641 30.75001938 -18.93665806 30.89543159 -22.71411133 30.35791016 C-24.71411133 28.35791016 -24.71411133 28.35791016 -25.12890625 25.5703125 C-24.58283195 21.34120973 -23.07143521 19.95487068 -20.07739258 16.95947266 C-19.60093796 16.47964935 -19.12448334 15.99982605 -18.6335907 15.50546265 C-17.62610779 14.49827781 -16.61116268 13.49850892 -15.58935547 12.50585938 C-14.02944234 10.98566907 -12.50106004 9.43824646 -10.97387695 7.88525391 C-9.98929516 6.9082305 -9.00302096 5.93290902 -8.01489258 4.95947266 C-7.11939697 4.07598145 -6.22390137 3.19249023 -5.30126953 2.28222656 C-2.71411133 0.35791016 -2.71411133 0.35791016 0 0 Z " fill="#F2CD22" transform="translate(311.714111328125,94.64208984375)"/>
<path d="M0 0 C2.5871582 1.92431641 2.5871582 1.92431641 5.30078125 4.6015625 C5.7820195 5.07564545 6.26325775 5.54972839 6.75907898 6.03817749 C7.77115548 7.04248454 8.77689509 8.05321273 9.77661133 9.06982422 C11.30610854 10.61852827 12.86262265 12.13568788 14.42382812 13.65234375 C15.40541998 14.63364519 16.385298 15.6166646 17.36328125 16.6015625 C18.25313721 17.49182129 19.14299316 18.38208008 20.05981445 19.29931641 C22.36860224 22.51308393 22.57657377 24.12517991 22 28 C20 30 20 30 17.1965332 30.39892578 C13.0748503 29.88454177 11.77166852 28.53199209 8.85546875 25.6171875 C7.93185547 24.69679688 7.00824219 23.77640625 6.05664062 22.828125 C5.58589111 22.34279297 5.1151416 21.85746094 4.63012695 21.35742188 C3.19326359 19.88092258 1.72940136 18.43598835 0.25976562 16.9921875 C-7.68087328 8.95668502 -7.68087328 8.95668502 -8 3 C-5.96249703 -0.39583829 -3.74773893 -0.49421474 0 0 Z " fill="#F0CC25" transform="translate(123,95)"/>
<path d="M0 0 C3 0.25 3 0.25 5 2.25 C5.21178882 4.8072794 5.30398869 7.25363314 5.30078125 9.8125 C5.30506638 10.55959229 5.3093515 11.30668457 5.31376648 12.07641602 C5.31951213 13.65672796 5.3200083 15.23706636 5.31567383 16.81738281 C5.31251215 19.24069088 5.33597408 21.66278035 5.36132812 24.0859375 C5.36360087 25.61979012 5.36430473 27.15364604 5.36328125 28.6875 C5.372491 29.41461182 5.38170074 30.14172363 5.39118958 30.89086914 C5.37231445 32.93359375 5.37231445 32.93359375 5 36.25 C2 38.25 2 38.25 -1.125 38 C-2.07375 37.7525 -3.0225 37.505 -4 37.25 C-5.49544542 34.25910916 -5.16279298 31.18632814 -5.16796875 27.90625 C-5.17129715 27.18135376 -5.17462555 26.45645752 -5.17805481 25.70959473 C-5.18311925 24.17635737 -5.18546328 22.64310899 -5.18530273 21.10986328 C-5.18749138 18.75925657 -5.20565751 16.40911751 -5.22460938 14.05859375 C-5.22754292 12.57031411 -5.22952798 11.08203223 -5.23046875 9.59375 C-5.23765427 8.88851196 -5.24483978 8.18327393 -5.25224304 7.45666504 C-5.21921449 0.43493454 -5.21921449 0.43493454 0 0 Z " fill="#F5CF20" transform="translate(216,55.75)"/>
</svg>
